<?xml version="1.0" encoding="utf-8"?>
<!-- Generator: Adobe Illustrator 15.0.0, SVG Export Plug-In . SVG Version: 6.00 Build 0)  -->
<!DOCTYPE svg PUBLIC "-//W3C//DTD SVG 1.1//EN" "http://www.w3.org/Graphics/SVG/1.1/DTD/svg11.dtd">
<svg version="1.1" id="Layer_1" xmlns="http://www.w3.org/2000/svg" xmlns:xlink="http://www.w3.org/1999/xlink" x="0px" y="0px"
	 width="290.332px" height="58.667px" viewBox="0 0 290.332 58.667" enable-background="new 0 0 290.332 58.667"
	 xml:space="preserve">
<g>
	<g>
		<g>
			<g>
				<g>
					<path fill="#212529" d="M33.982,34.755l0.015-0.002l0.272-2.185l-0.02,0.004l0.279-2.271c1.299-0.141,2.571-0.716,3.555-1.759
						c2.123-2.255,2.084-5.744-0.088-7.79c-2.174-2.046-5.658-1.873-7.781,0.382c-1.027,1.091-1.537,2.469-1.558,3.832l-0.733,0.162
						l-0.359,2.218l1.465-0.32c0.274,0.701,0.691,1.354,1.271,1.899c0.625,0.59,1.365,0.974,2.145,1.198l-0.354,2.869l-0.012,0.002
						l-0.271,2.182h0.015l-1.6,13.014c-0.977,0.104-1.932,0.451-2.766,1.064L11.002,33.763c0.599-0.92,0.898-1.965,0.914-3.002
						l11.257-2.457l0.361-2.219l-11.991,2.617c-0.274-0.702-0.69-1.355-1.27-1.901c-2.174-2.044-5.658-1.873-7.781,0.382
						c-2.125,2.258-2.087,5.746,0.086,7.791c1.922,1.813,4.867,1.879,6.992,0.311l16.458,15.494
						c-1.438,2.217-1.193,5.148,0.729,6.961c2.174,2.045,5.658,1.873,7.782-0.383c2.123-2.258,2.085-5.744-0.088-7.791
						c-0.627-0.59-1.365-0.975-2.144-1.195L33.982,34.755z"/>
				</g>
				<g>
					<g>
						<path fill="#212529" d="M49.705,25.626L33.249,10.134c1.438-2.216,1.193-5.151-0.73-6.962
							c-2.173-2.046-5.656-1.873-7.779,0.382c-2.125,2.257-2.086,5.745,0.086,7.79c0.568,0.535,1.229,0.911,1.93,1.145l-1.331,8.354
							l0.019,0.003l-1.171,7.221h0.003l-0.327,2.052c-1.367,0.096-2.72,0.689-3.751,1.785c-2.125,2.256-2.086,5.746,0.087,7.791
							c2.173,2.045,5.658,1.875,7.782-0.383c0.994-1.055,1.494-2.381,1.544-3.705l1.118-0.217l0.272-2.184l-1.714,0.334
							c-0.273-0.744-0.697-1.443-1.309-2.019c-0.576-0.541-1.246-0.918-1.954-1.153l0.097-0.617l-0.006-0.002l0.709-4.383
							l-0.004,0.004l2.011-12.617c1.05-0.069,2.091-0.438,2.988-1.1l16.456,15.493c-0.572,0.884-0.866,1.878-0.902,2.874
							l-12.025,2.341l-0.271,2.183l12.62-2.455c0.272,0.746,0.698,1.442,1.308,2.02c2.174,2.047,5.658,1.875,7.783-0.383
							c2.123-2.256,2.086-5.745-0.088-7.792C54.776,24.125,51.83,24.056,49.705,25.626z"/>
					</g>
				</g>
			</g>
		</g>
		<g>
			<g>
				<path fill="#212529" d="M77.726,23.073h4.284v1.96h-4.312v7.308c0,0.82,0.154,1.47,0.462,1.945
					c0.308,0.478,0.882,0.715,1.722,0.715c0.317,0,0.639-0.047,0.966-0.141c0.327-0.096,0.648-0.217,0.966-0.363l0.672,1.904
					c-0.467,0.205-0.915,0.359-1.344,0.475c-0.43,0.113-0.878,0.179-1.344,0.197c-1.494,0.037-2.595-0.359-3.304-1.191
					c-0.709-0.829-1.064-2.01-1.064-3.541v-7.308h-2.772v-1.96h2.772v-3.808l2.296-0.252V23.073z"/>
				<path fill="#212529" d="M84.417,29.989c0-1.064,0.182-2.044,0.546-2.94c0.364-0.896,0.863-1.661,1.498-2.296
					c0.634-0.634,1.39-1.129,2.268-1.484c0.877-0.354,1.829-0.532,2.856-0.532c1.064,0,2.034,0.178,2.912,0.532
					c0.877,0.354,1.633,0.85,2.268,1.484c0.635,0.635,1.129,1.4,1.484,2.296c0.354,0.896,0.532,1.875,0.532,2.94
					c0,1.046-0.178,2.007-0.532,2.884c-0.355,0.879-0.854,1.635-1.498,2.269c-0.644,0.637-1.405,1.125-2.282,1.473
					c-0.877,0.347-1.839,0.521-2.884,0.521c-1.046,0-2.002-0.174-2.87-0.521c-0.868-0.348-1.624-0.836-2.268-1.473
					c-0.644-0.634-1.144-1.39-1.498-2.269C84.594,31.996,84.417,31.035,84.417,29.989z M96.513,29.989
					c0-0.766-0.126-1.465-0.378-2.1c-0.252-0.635-0.598-1.176-1.036-1.624c-0.439-0.448-0.957-0.798-1.554-1.05
					c-0.598-0.252-1.242-0.378-1.932-0.378c-0.709,0-1.363,0.126-1.96,0.378c-0.598,0.252-1.116,0.602-1.554,1.05
					c-0.439,0.448-0.78,0.989-1.022,1.624c-0.242,0.635-0.364,1.334-0.364,2.1c0,0.728,0.121,1.396,0.364,2.003
					c0.243,0.604,0.579,1.133,1.008,1.582c0.429,0.443,0.942,0.793,1.54,1.035c0.597,0.24,1.25,0.361,1.96,0.361
					c0.709,0,1.367-0.121,1.974-0.361c0.606-0.242,1.124-0.592,1.554-1.035c0.429-0.449,0.77-0.979,1.022-1.582
					C96.387,31.384,96.513,30.716,96.513,29.989z"/>
				<path fill="#212529" d="M106.034,23.073h4.284v1.96h-4.312v7.308c0,0.82,0.154,1.47,0.462,1.945
					c0.308,0.477,0.882,0.715,1.722,0.715c0.317,0,0.639-0.047,0.966-0.141c0.327-0.096,0.648-0.217,0.966-0.363l0.672,1.904
					c-0.467,0.205-0.915,0.359-1.344,0.475c-0.43,0.113-0.878,0.179-1.344,0.197c-1.494,0.037-2.595-0.359-3.304-1.191
					c-0.709-0.829-1.064-2.01-1.064-3.541v-7.308h-2.772v-1.96h2.772v-3.808l2.296-0.252V23.073z"/>
				<path fill="#212529" d="M124.989,36.933l-0.056-2.52c-0.28,0.483-0.612,0.899-0.994,1.246c-0.383,0.346-0.798,0.635-1.246,0.866
					c-0.448,0.229-0.919,0.402-1.414,0.519c-0.495,0.112-0.976,0.168-1.442,0.168c-0.99,0-1.918-0.168-2.786-0.504
					c-0.868-0.336-1.62-0.816-2.254-1.441c-0.635-0.625-1.134-1.387-1.498-2.281c-0.364-0.896-0.546-1.902-0.546-3.021
					s0.187-2.124,0.56-3.01c0.373-0.887,0.882-1.638,1.526-2.254c0.644-0.616,1.396-1.082,2.254-1.4
					c0.858-0.317,1.783-0.476,2.772-0.476c1.045,0,2.034,0.234,2.968,0.7c0.933,0.467,1.652,1.148,2.156,2.044l0.028-2.52h2.24
					V36.88h-2.212L124.989,36.933z M119.949,25.005c-0.691,0-1.335,0.117-1.932,0.35c-0.598,0.233-1.12,0.57-1.568,1.008
					c-0.448,0.439-0.803,0.971-1.064,1.596c-0.261,0.625-0.392,1.32-0.392,2.085c0,0.765,0.13,1.461,0.392,2.086
					c0.261,0.627,0.616,1.158,1.064,1.596c0.448,0.439,0.97,0.781,1.568,1.023c0.597,0.241,1.241,0.362,1.932,0.362
					c1.101,0,2.025-0.252,2.772-0.756c0.746-0.508,1.306-1.133,1.68-1.879c0.374-0.744,0.56-1.56,0.56-2.437
					c0-0.877-0.187-1.689-0.56-2.437c-0.374-0.746-0.929-1.372-1.666-1.876C121.998,25.228,121.069,24.987,119.949,25.005z"/>
				<path fill="#212529" d="M134.285,36.876h-2.296V17.276h2.296V36.876z"/>
				<path fill="#212529" d="M144.111,19.265v3.864h3.5v3.36h-3.527v5.208c0,0.729,0.168,1.221,0.504,1.473s0.69,0.377,1.063,0.377
					c0.244,0,0.527-0.026,0.854-0.084c0.327-0.057,0.603-0.141,0.826-0.252l0.924,3.359c-0.504,0.205-0.979,0.352-1.429,0.436
					c-0.447,0.084-0.942,0.146-1.483,0.183c-0.747,0.037-1.441-0.024-2.086-0.192s-1.199-0.461-1.666-0.882
					c-0.467-0.424-0.835-0.989-1.106-1.709c-0.271-0.721-0.406-1.618-0.406-2.7v-5.211h-2.464v-3.36h2.464v-3.416L144.111,19.265z"
					/>
				<path fill="#212529" d="M154.023,31.279c0.095,0.672,0.457,1.246,1.093,1.723c0.638,0.478,1.521,0.715,2.659,0.715
					c0.541,0,1.152-0.073,1.834-0.227c0.686-0.148,1.268-0.438,1.75-0.865l2.271,2.521c-0.746,0.729-1.66,1.25-2.744,1.567
					c-1.082,0.314-2.146,0.478-3.188,0.478c-1.252,0-2.357-0.178-3.318-0.528c-0.961-0.355-1.773-0.855-2.436-1.498
					c-0.664-0.646-1.162-1.42-1.498-2.324c-0.336-0.906-0.504-1.908-0.504-3.011c0-1.045,0.172-2.007,0.518-2.884
					s0.835-1.628,1.471-2.254c0.633-0.625,1.403-1.115,2.31-1.47c0.905-0.354,1.918-0.532,3.038-0.532
					c1.178,0,2.24,0.182,3.191,0.546c0.951,0.364,1.739,0.906,2.365,1.624c0.626,0.719,1.063,1.615,1.314,2.688
					c0.254,1.074,0.268,2.319,0.043,3.739h-10.166V31.28L154.023,31.279L154.023,31.279z M160.575,28.337
					c-0.021-0.373-0.121-0.7-0.308-0.98c-0.188-0.28-0.438-0.508-0.742-0.686c-0.312-0.177-0.657-0.313-1.053-0.406
					c-0.393-0.093-0.793-0.14-1.201-0.14c-0.821,0-1.521,0.196-2.086,0.588c-0.569,0.392-0.957,0.934-1.162,1.624H160.575z"/>
				<path fill="#212529" d="M179.395,35.056c-0.843,0.822-1.729,1.383-2.66,1.682c-0.936,0.299-1.851,0.447-2.744,0.447
					c-1.008,0-1.971-0.141-2.885-0.42s-1.719-0.715-2.408-1.303c-0.688-0.588-1.239-1.334-1.649-2.24
					c-0.409-0.904-0.614-1.98-0.614-3.232c0-1.158,0.205-2.188,0.614-3.094c0.41-0.905,0.957-1.666,1.642-2.282
					c0.681-0.616,1.479-1.082,2.394-1.4c0.914-0.317,1.877-0.476,2.885-0.476c1.009,0,1.918,0.136,2.729,0.406
					c0.813,0.271,1.57,0.77,2.279,1.498l-2.238,2.548c-0.432-0.317-0.862-0.532-1.303-0.644c-0.438-0.112-0.873-0.168-1.304-0.168
					c-0.504,0-0.978,0.08-1.414,0.238c-0.438,0.159-0.825,0.392-1.161,0.7s-0.599,0.686-0.781,1.134
					c-0.188,0.448-0.28,0.961-0.28,1.542c0,0.56,0.101,1.055,0.295,1.482c0.194,0.43,0.457,0.789,0.782,1.078
					c0.326,0.289,0.705,0.514,1.136,0.672s0.877,0.238,1.344,0.238c0.447,0,0.941-0.088,1.484-0.267
					c0.541-0.182,0.979-0.438,1.313-0.771L179.395,35.056z"/>
				<path fill="#212529" d="M185.889,17.277v7.476c0.578-0.747,1.245-1.255,2.002-1.526c0.758-0.271,1.488-0.406,2.197-0.406
					c0.803,0,1.545,0.117,2.229,0.35c0.683,0.234,1.266,0.607,1.75,1.12c0.482,0.514,0.861,1.195,1.133,2.044
					c0.271,0.85,0.406,1.89,0.406,3.123v7.418h-4.031v-7.392c0-0.971-0.236-1.713-0.715-2.227c-0.478-0.513-1.115-0.77-1.918-0.77
					c-0.84,0-1.563,0.285-2.17,0.854c-0.604,0.57-0.91,1.414-0.91,2.535v7h-4.029V17.276L185.889,17.277L185.889,17.277z"/>
				<path fill="#212529" d="M209.154,36.876v-7.309c0-2.147-0.95-3.22-2.854-3.22c-0.467,0-0.892,0.089-1.273,0.266
					c-0.383,0.178-0.713,0.425-0.994,0.742c-0.276,0.318-0.491,0.682-0.645,1.092c-0.148,0.411-0.225,0.84-0.225,1.289v7.142h-3.977
					V23.045h3.64l0.142,1.764c0.615-0.803,1.307-1.358,2.071-1.666s1.567-0.453,2.408-0.434c0.782,0,1.521,0.103,2.211,0.308
					c0.688,0.205,1.304,0.569,1.834,1.092c0.532,0.523,0.952,1.223,1.262,2.1s0.462,1.988,0.462,3.333v7.334H209.154L209.154,36.876
					z"/>
				<path fill="#212529" d="M223.549,37.185c-1.176,0-2.229-0.178-3.164-0.531c-0.935-0.353-1.728-0.854-2.38-1.498
					c-0.651-0.644-1.151-1.402-1.498-2.279c-0.346-0.877-0.519-1.842-0.519-2.885c0-1.045,0.178-2.012,0.531-2.897
					c0.354-0.886,0.86-1.652,1.523-2.296c0.662-0.644,1.456-1.148,2.38-1.512c0.925-0.364,1.966-0.546,3.122-0.546
					s2.202,0.182,3.137,0.546c0.937,0.364,1.73,0.868,2.396,1.512c0.662,0.644,1.171,1.41,1.525,2.296
					c0.354,0.887,0.528,1.853,0.528,2.897c0,1.043-0.173,2.008-0.521,2.885c-0.346,0.877-0.85,1.638-1.514,2.279
					c-0.662,0.646-1.461,1.146-2.394,1.498C225.777,37.007,224.725,37.185,223.549,37.185z M223.549,33.601
					c0.616,0,1.145-0.102,1.582-0.309c0.438-0.205,0.805-0.476,1.092-0.813c0.289-0.336,0.5-0.724,0.631-1.16
					s0.195-0.885,0.195-1.331c0-0.43-0.068-0.863-0.21-1.302c-0.142-0.438-0.351-0.831-0.63-1.176
					c-0.279-0.345-0.641-0.625-1.078-0.84c-0.438-0.214-0.966-0.322-1.582-0.322c-0.599,0-1.115,0.107-1.554,0.322
					c-0.438,0.215-0.8,0.495-1.078,0.84c-0.28,0.346-0.49,0.738-0.631,1.176c-0.142,0.439-0.209,0.873-0.209,1.302
					c0,0.43,0.063,0.858,0.194,1.288c0.131,0.433,0.336,0.815,0.613,1.162c0.28,0.347,0.643,0.625,1.078,0.84
					C222.398,33.494,222.934,33.601,223.549,33.601z"/>
				<path fill="#212529" d="M238.163,17.305v19.571h-4.004V17.305H238.163z"/>
				<path fill="#212529" d="M248.748,37.185c-1.178,0-2.229-0.178-3.164-0.531c-0.936-0.353-1.729-0.854-2.38-1.498
					c-0.653-0.645-1.153-1.402-1.498-2.279c-0.347-0.877-0.519-1.842-0.519-2.885c0-1.045,0.176-2.012,0.528-2.897
					c0.353-0.886,0.863-1.652,1.524-2.296c0.662-0.644,1.455-1.148,2.382-1.512c0.924-0.364,1.965-0.546,3.12-0.546
					c1.156,0,2.201,0.182,3.138,0.546c0.937,0.364,1.729,0.868,2.396,1.512c0.662,0.644,1.17,1.41,1.523,2.296
					c0.354,0.887,0.532,1.853,0.532,2.897c0,1.043-0.175,2.008-0.519,2.885c-0.349,0.877-0.853,1.638-1.516,2.279
					c-0.662,0.646-1.461,1.146-2.396,1.498C250.979,37.007,249.924,37.185,248.748,37.185z M248.748,33.601
					c0.615,0,1.145-0.102,1.582-0.309c0.438-0.205,0.803-0.476,1.092-0.813c0.289-0.336,0.499-0.724,0.63-1.16
					c0.132-0.437,0.196-0.885,0.196-1.331c0-0.43-0.07-0.863-0.21-1.302c-0.142-0.438-0.351-0.831-0.631-1.176
					c-0.279-0.345-0.64-0.625-1.077-0.84c-0.438-0.214-0.967-0.322-1.582-0.322c-0.6,0-1.115,0.107-1.555,0.322
					c-0.438,0.215-0.799,0.495-1.077,0.84c-0.28,0.346-0.49,0.738-0.632,1.176c-0.143,0.439-0.209,0.873-0.209,1.302
					c0,0.43,0.063,0.858,0.192,1.288c0.134,0.433,0.337,0.815,0.616,1.162c0.277,0.347,0.643,0.625,1.078,0.84
					C247.598,33.494,248.132,33.601,248.748,33.601z"/>
				<path fill="#212529" d="M262.468,38.781c0.074,1.063,0.438,1.797,1.093,2.195c0.653,0.4,1.445,0.604,2.381,0.604
					c0.447,0,0.877-0.053,1.287-0.153c0.41-0.104,0.773-0.263,1.092-0.478s0.568-0.479,0.76-0.797
					c0.186-0.318,0.277-0.691,0.277-1.121c0-0.672-0.248-1.236-0.742-1.693c-0.492-0.457-1.365-0.686-2.615-0.686
					c-1.143,0-2.166-0.164-3.08-0.49c-0.915-0.326-1.699-0.787-2.354-1.387c-0.655-0.6-1.156-1.33-1.514-2.197
					c-0.354-0.867-0.529-1.834-0.529-2.896c0-1.176,0.209-2.203,0.629-3.081s0.978-1.61,1.666-2.198s1.482-1.031,2.381-1.33
					c0.896-0.298,1.828-0.448,2.802-0.448c0.483,0,1.034,0.047,1.649,0.14c0.615,0.093,1.146,0.299,1.599,0.616l1.513-1.96
					l2.911,2.24l-1.767,2.1c0.484,0.598,0.854,1.237,1.105,1.918c0.252,0.682,0.356,1.368,0.321,2.059
					c-0.038,0.989-0.29,1.915-0.758,2.771c-0.468,0.859-1.202,1.552-2.214,2.072c0.769,0.336,1.357,0.726,1.777,1.162
					c0.42,0.438,0.729,0.867,0.926,1.287c0.195,0.42,0.311,0.809,0.336,1.162c0.026,0.354,0.041,0.635,0.041,0.84
					c0,1.025-0.215,1.922-0.645,2.688c-0.432,0.77-0.994,1.397-1.693,1.903c-0.699,0.504-1.498,0.883-2.395,1.135
					c-0.896,0.253-1.82,0.378-2.771,0.378c-2.407,0-4.225-0.562-5.444-1.681c-1.226-1.119-1.813-2.68-1.776-4.678h3.752
					L262.468,38.781L262.468,38.781z M265.996,26.209c-1.027,0-1.882,0.299-2.563,0.896c-0.683,0.598-1.021,1.456-1.021,2.575
					c0,1.009,0.34,1.813,1.021,2.409c0.682,0.598,1.534,0.896,2.563,0.896c0.445,0,0.882-0.069,1.302-0.211
					c0.42-0.144,0.793-0.348,1.12-0.614c0.325-0.271,0.583-0.611,0.771-1.023c0.188-0.41,0.278-0.896,0.278-1.456
					c0-0.484-0.089-0.938-0.266-1.357c-0.179-0.42-0.423-0.788-0.729-1.106c-0.308-0.317-0.672-0.564-1.092-0.742
					C266.961,26.297,266.5,26.209,265.996,26.209z"/>
				<path fill="#212529" d="M290.832,23.045l-8.484,20.048h-4.396l2.854-6.637l-5.797-13.413h4.536l3.443,8.708l3.389-8.708
					L290.832,23.045L290.832,23.045z"/>
			</g>
		</g>
		<g>
			<g>
				<path fill="#212529" d="M175.368,50.689v-7.854h4.048c1.753,0,2.629,0.752,2.629,2.254c0,0.748-0.222,1.344-0.665,1.789
					c-0.442,0.442-1.071,0.666-1.887,0.666h-2.959v3.146L175.368,50.689L175.368,50.689L175.368,50.689z M176.534,46.531h2.805
					c1.027,0,1.54-0.477,1.54-1.42c0-0.391-0.113-0.695-0.341-0.926c-0.229-0.227-0.56-0.342-0.99-0.342h-3.014V46.531
					L176.534,46.531z"/>
				<path fill="#212529" d="M191.273,50.689l-1-2.289h-3.852l-1,2.289h-1.254l3.553-7.854h1.33l3.555,7.854H191.273z
					 M189.846,47.388l-1.509-3.477l-1.476,3.477H189.846z"/>
				<path fill="#212529" d="M195.65,50.689v-7.854h4.863c0.725,0,1.279,0.223,1.66,0.67c0.322,0.375,0.484,0.848,0.484,1.42
					c0,1.012-0.44,1.658-1.32,1.938v0.021c0.346,0.051,0.615,0.229,0.814,0.521c0.193,0.298,0.308,0.683,0.33,1.148
					c0.035,0.756,0.068,1.254,0.105,1.495c0.051,0.279,0.143,0.492,0.268,0.642h-1.232c-0.088-0.104-0.146-0.262-0.176-0.476
					c-0.018-0.116-0.037-0.459-0.065-1.021c-0.036-0.684-0.175-1.159-0.413-1.432s-0.605-0.406-1.105-0.406h-3.047v3.334
					L195.65,50.689L195.65,50.689z M196.816,46.343h3.257c0.946,0,1.42-0.414,1.42-1.244c0-0.836-0.464-1.254-1.388-1.254h-3.289
					V46.343z"/>
				<path fill="#212529" d="M208.29,50.689v-6.844h-2.97v-1.012h7.104v1.012h-2.971v6.844H208.29z"/>
				<path fill="#212529" d="M221.762,50.689l-5.066-6.248v6.248h-1.166v-7.854h1.357l5.065,6.248v-6.248h1.166v7.854H221.762z"/>
				<path fill="#212529" d="M227.057,50.689v-7.854h6.313v1.012h-5.147v2.277h4.993v1.012h-4.993v2.541h5.26v1.014h-6.426V50.689z"
					/>
				<path fill="#212529" d="M237.045,50.689v-7.854h4.862c0.726,0,1.278,0.223,1.659,0.67c0.32,0.375,0.481,0.848,0.481,1.42
					c0,1.012-0.438,1.658-1.317,1.938v0.021c0.347,0.051,0.613,0.229,0.813,0.521c0.195,0.298,0.312,0.683,0.33,1.148
					c0.035,0.756,0.071,1.254,0.106,1.495c0.054,0.279,0.143,0.492,0.268,0.642h-1.232c-0.088-0.104-0.146-0.262-0.176-0.476
					c-0.017-0.116-0.035-0.459-0.063-1.021c-0.037-0.684-0.176-1.159-0.414-1.432c-0.236-0.271-0.604-0.406-1.104-0.406h-3.047
					v3.334L237.045,50.689L237.045,50.689z M238.211,46.343h3.256c0.946,0,1.42-0.414,1.42-1.244c0-0.836-0.463-1.254-1.387-1.254
					h-3.289V46.343z"/>
				<path fill="#212529" d="M246.878,48.103h1.166c0.008,0.646,0.281,1.115,0.824,1.408c0.435,0.242,1.002,0.363,1.705,0.363
					c0.639,0,1.149-0.117,1.541-0.353c0.389-0.233,0.581-0.563,0.581-0.979c0-0.615-0.485-1.004-1.463-1.166l-1.78-0.297
					c-1.556-0.257-2.332-0.941-2.332-2.058c0-0.729,0.276-1.308,0.83-1.737c0.555-0.437,1.325-0.648,2.313-0.648
					c0.907,0,1.648,0.172,2.223,0.518c0.695,0.426,1.068,1.074,1.123,1.945h-1.166c-0.153-0.967-0.935-1.451-2.332-1.451
					c-0.491,0-0.901,0.102-1.231,0.297c-0.396,0.234-0.594,0.564-0.594,0.99c0,0.541,0.43,0.887,1.287,1.033l1.925,0.33
					c1.577,0.271,2.363,0.943,2.363,2.014c0,0.916-0.361,1.596-1.088,2.035c-0.596,0.359-1.356,0.539-2.289,0.539
					c-1.024,0-1.851-0.195-2.463-0.584C247.259,49.833,246.878,49.101,246.878,48.103z"/>
			</g>
		</g>
	</g>
</g>
<g>
	<g>
		<g>
			<g>
				<path fill="#FFFFFF" d="M33.059,33.683l0.015-0.002l0.272-2.184l-0.02,0.004l0.279-2.271c1.299-0.14,2.571-0.716,3.555-1.759
					c2.123-2.255,2.084-5.744-0.088-7.79c-2.174-2.046-5.658-1.873-7.781,0.382c-1.027,1.091-1.537,2.469-1.558,3.832L27,24.057
					l-0.359,2.218l1.465-0.32c0.274,0.701,0.691,1.354,1.271,1.9c0.625,0.589,1.365,0.973,2.145,1.197l-0.354,2.869l-0.012,0.002
					l-0.271,2.183H30.9l-1.6,13.013c-0.977,0.104-1.932,0.452-2.766,1.065L10.079,32.691c0.599-0.92,0.898-1.964,0.914-3.002
					l11.257-2.456l0.361-2.219L10.62,27.631c-0.274-0.702-0.69-1.355-1.27-1.901c-2.174-2.044-5.658-1.873-7.781,0.382
					c-2.125,2.258-2.087,5.746,0.086,7.791c1.922,1.812,4.867,1.879,6.992,0.31l16.458,15.494c-1.438,2.217-1.193,5.149,0.729,6.961
					c2.174,2.045,5.658,1.873,7.782-0.383c2.123-2.257,2.085-5.744-0.088-7.791c-0.627-0.589-1.365-0.974-2.144-1.195L33.059,33.683
					z"/>
			</g>
			<g>
				<g>
					<path fill="#0088CC" d="M48.782,24.554L32.326,9.062c1.438-2.216,1.193-5.151-0.73-6.962c-2.173-2.046-5.656-1.873-7.779,0.382
						c-2.125,2.257-2.086,5.745,0.086,7.79c0.568,0.535,1.229,0.911,1.93,1.145l-1.331,8.354l0.019,0.003l-1.171,7.221h0.003
						l-0.327,2.051c-1.367,0.097-2.72,0.69-3.751,1.786c-2.125,2.256-2.086,5.746,0.087,7.791c2.173,2.045,5.658,1.875,7.782-0.383
						c0.994-1.055,1.494-2.381,1.544-3.705l1.118-0.217l0.272-2.184l-1.714,0.334c-0.273-0.744-0.697-1.442-1.309-2.018
						c-0.576-0.541-1.246-0.917-1.954-1.154l0.097-0.618l-0.006-0.001l0.709-4.383L25.897,24.3l2.011-12.617
						c1.05-0.069,2.091-0.438,2.988-1.1l16.456,15.493c-0.572,0.884-0.866,1.878-0.902,2.874l-12.025,2.34l-0.271,2.182l12.62-2.455
						c0.272,0.746,0.698,1.443,1.308,2.02c2.174,2.047,5.658,1.875,7.783-0.382c2.123-2.256,2.086-5.746-0.088-7.792
						C53.853,23.053,50.907,22.984,48.782,24.554z"/>
				</g>
			</g>
		</g>
	</g>
	<g>
		<g>
			<path fill="#FFFFFF" stroke="#FFFFFF" stroke-width="0.5" stroke-miterlimit="10" d="M76.803,22.001h4.284v1.96h-4.312v7.308
				c0,0.82,0.154,1.47,0.462,1.945c0.308,0.477,0.882,0.715,1.722,0.715c0.317,0,0.639-0.047,0.966-0.141
				c0.327-0.097,0.648-0.218,0.966-0.363l0.672,1.904c-0.467,0.205-0.915,0.359-1.344,0.476c-0.43,0.112-0.878,0.177-1.344,0.196
				c-1.494,0.037-2.595-0.359-3.304-1.19c-0.709-0.83-1.064-2.011-1.064-3.542v-7.308h-2.772v-1.96h2.772v-3.808l2.296-0.252V22.001
				z"/>
			<path fill="#FFFFFF" stroke="#FFFFFF" stroke-width="0.5" stroke-miterlimit="10" d="M83.494,28.917
				c0-1.064,0.182-2.044,0.546-2.94c0.364-0.896,0.863-1.661,1.498-2.296c0.634-0.634,1.39-1.129,2.268-1.484
				c0.877-0.354,1.829-0.532,2.856-0.532c1.064,0,2.034,0.178,2.912,0.532c0.877,0.354,1.633,0.85,2.268,1.484
				c0.635,0.635,1.129,1.4,1.484,2.296c0.354,0.896,0.532,1.876,0.532,2.94c0,1.045-0.178,2.006-0.532,2.884
				c-0.355,0.878-0.854,1.634-1.498,2.268c-0.644,0.636-1.405,1.125-2.282,1.472c-0.877,0.348-1.839,0.521-2.884,0.521
				c-1.046,0-2.002-0.173-2.87-0.521c-0.868-0.347-1.624-0.836-2.268-1.472c-0.644-0.634-1.144-1.39-1.498-2.268
				C83.671,30.923,83.494,29.962,83.494,28.917z M95.59,28.917c0-0.766-0.126-1.465-0.378-2.1c-0.252-0.635-0.598-1.176-1.036-1.624
				c-0.439-0.448-0.957-0.798-1.554-1.05c-0.598-0.252-1.242-0.378-1.932-0.378c-0.709,0-1.363,0.126-1.96,0.378
				c-0.598,0.252-1.116,0.602-1.554,1.05c-0.439,0.448-0.78,0.989-1.022,1.624c-0.242,0.635-0.364,1.334-0.364,2.1
				c0,0.728,0.121,1.396,0.364,2.002c0.243,0.604,0.579,1.134,1.008,1.582c0.429,0.443,0.942,0.793,1.54,1.035
				c0.597,0.239,1.25,0.36,1.96,0.36c0.709,0,1.367-0.121,1.974-0.36c0.606-0.242,1.124-0.592,1.554-1.035
				c0.429-0.448,0.77-0.979,1.022-1.582C95.464,30.313,95.59,29.645,95.59,28.917z"/>
			<path fill="#FFFFFF" stroke="#FFFFFF" stroke-width="0.5" stroke-miterlimit="10" d="M105.111,22.001h4.284v1.96h-4.312v7.308
				c0,0.82,0.154,1.47,0.462,1.945c0.308,0.477,0.882,0.715,1.722,0.715c0.317,0,0.639-0.047,0.966-0.141
				c0.327-0.097,0.648-0.218,0.966-0.363l0.672,1.904c-0.467,0.205-0.915,0.359-1.344,0.476c-0.43,0.112-0.878,0.177-1.344,0.196
				c-1.494,0.037-2.595-0.359-3.304-1.19c-0.709-0.83-1.064-2.011-1.064-3.542v-7.308h-2.772v-1.96h2.772v-3.808l2.296-0.252V22.001
				z"/>
			<path fill="#FFFFFF" stroke="#FFFFFF" stroke-width="0.5" stroke-miterlimit="10" d="M124.066,35.861l-0.056-2.52
				c-0.28,0.484-0.612,0.9-0.994,1.246c-0.383,0.346-0.798,0.635-1.246,0.867c-0.448,0.23-0.919,0.402-1.414,0.519
				c-0.495,0.112-0.976,0.168-1.442,0.168c-0.99,0-1.918-0.168-2.786-0.504s-1.62-0.816-2.254-1.442
				c-0.635-0.625-1.134-1.386-1.498-2.281c-0.364-0.896-0.546-1.9-0.546-3.021s0.187-2.123,0.56-3.01
				c0.373-0.887,0.882-1.638,1.526-2.254c0.644-0.616,1.396-1.082,2.254-1.4c0.858-0.317,1.783-0.476,2.772-0.476
				c1.045,0,2.034,0.234,2.968,0.7c0.933,0.467,1.652,1.148,2.156,2.044l0.028-2.52h2.24v13.832h-2.212L124.066,35.861z
				 M119.026,23.933c-0.691,0-1.335,0.117-1.932,0.35c-0.598,0.233-1.12,0.57-1.568,1.008c-0.448,0.439-0.803,0.971-1.064,1.596
				c-0.261,0.625-0.392,1.32-0.392,2.086c0,0.766,0.13,1.461,0.392,2.086c0.261,0.626,0.616,1.157,1.064,1.596
				c0.448,0.439,0.97,0.78,1.568,1.022c0.597,0.242,1.241,0.363,1.932,0.363c1.101,0,2.025-0.252,2.772-0.756
				c0.746-0.508,1.306-1.133,1.68-1.88c0.374-0.743,0.56-1.558,0.56-2.436c0-0.877-0.187-1.689-0.56-2.436
				c-0.374-0.746-0.929-1.372-1.666-1.876C121.075,24.156,120.146,23.915,119.026,23.933z"/>
			<path fill="#FFFFFF" d="M133.362,35.805h-2.296v-19.6h2.296V35.805z"/>
			<path fill="#0088CC" d="M143.189,18.193v3.864h3.5v3.36h-3.528v5.208c0,0.729,0.168,1.222,0.504,1.474s0.69,0.378,1.064,0.378
				c0.243,0,0.527-0.028,0.854-0.084c0.327-0.059,0.603-0.143,0.826-0.252l0.924,3.357c-0.504,0.205-0.979,0.353-1.429,0.437
				c-0.447,0.084-0.942,0.146-1.483,0.183c-0.747,0.036-1.442-0.025-2.086-0.193s-1.199-0.461-1.666-0.881
				c-0.467-0.424-0.835-0.99-1.106-1.709c-0.271-0.722-0.406-1.619-0.406-2.701v-5.21h-2.464v-3.36h2.464v-3.416L143.189,18.193z"/>
			<path fill="#0088CC" d="M153.102,30.207c0.094,0.672,0.457,1.246,1.092,1.725c0.639,0.476,1.521,0.714,2.66,0.714
				c0.541,0,1.152-0.074,1.834-0.228c0.686-0.146,1.268-0.438,1.75-0.864l2.271,2.52c-0.746,0.729-1.661,1.251-2.744,1.568
				c-1.082,0.313-2.146,0.478-3.188,0.478c-1.252,0-2.357-0.179-3.318-0.529c-0.961-0.354-1.773-0.854-2.436-1.498
				c-0.664-0.646-1.162-1.42-1.498-2.324c-0.336-0.905-0.504-1.908-0.504-3.01c0-1.045,0.172-2.007,0.518-2.884
				c0.345-0.877,0.835-1.628,1.47-2.254c0.634-0.625,1.404-1.115,2.31-1.47c0.906-0.354,1.918-0.532,3.039-0.532
				c1.178,0,2.24,0.182,3.19,0.546c0.952,0.364,1.74,0.906,2.366,1.624c0.626,0.719,1.063,1.615,1.314,2.688
				c0.254,1.074,0.268,2.319,0.043,3.737h-10.166v-0.004h-0.004V30.207z M159.652,27.265c-0.021-0.373-0.121-0.7-0.307-0.98
				c-0.188-0.28-0.438-0.508-0.742-0.686c-0.313-0.177-0.658-0.313-1.055-0.406c-0.392-0.093-0.793-0.14-1.199-0.14
				c-0.822,0-1.521,0.196-2.086,0.588c-0.57,0.392-0.957,0.934-1.162,1.624H159.652z"/>
			<path fill="#0088CC" d="M178.471,33.985c-0.842,0.822-1.729,1.382-2.66,1.681c-0.935,0.299-1.85,0.447-2.744,0.447
				c-1.008,0-1.971-0.14-2.885-0.42c-0.914-0.279-1.718-0.714-2.408-1.302c-0.688-0.588-1.238-1.334-1.648-2.24
				c-0.41-0.905-0.615-1.981-0.615-3.233c0-1.158,0.205-2.188,0.615-3.094c0.41-0.905,0.957-1.666,1.643-2.282
				c0.68-0.616,1.479-1.082,2.393-1.4c0.914-0.317,1.877-0.476,2.885-0.476s1.918,0.136,2.73,0.406
				c0.812,0.271,1.568,0.77,2.279,1.498l-2.238,2.548c-0.433-0.317-0.863-0.532-1.303-0.644c-0.438-0.112-0.873-0.168-1.305-0.168
				c-0.504,0-0.979,0.08-1.414,0.238c-0.438,0.159-0.824,0.392-1.162,0.7c-0.336,0.308-0.598,0.686-0.779,1.134
				c-0.188,0.448-0.281,0.961-0.281,1.541c0,0.56,0.1,1.055,0.295,1.483c0.195,0.43,0.457,0.789,0.783,1.078
				c0.326,0.29,0.705,0.514,1.135,0.672c0.43,0.159,0.877,0.238,1.344,0.238c0.447,0,0.941-0.088,1.484-0.266
				c0.541-0.182,0.979-0.438,1.313-0.771L178.471,33.985z"/>
			<path fill="#0088CC" d="M184.965,16.205v7.476c0.579-0.747,1.246-1.255,2.002-1.526c0.758-0.271,1.489-0.406,2.198-0.406
				c0.803,0,1.545,0.117,2.228,0.35c0.684,0.234,1.267,0.607,1.75,1.12c0.483,0.514,0.862,1.195,1.133,2.044
				c0.271,0.85,0.406,1.89,0.406,3.122v7.42h-4.031v-7.392c0-0.971-0.235-1.713-0.715-2.227c-0.477-0.513-1.115-0.77-1.918-0.77
				c-0.84,0-1.563,0.285-2.17,0.854c-0.604,0.57-0.91,1.414-0.91,2.534v7h-4.028v-19.6L184.965,16.205L184.965,16.205z"/>
			<path fill="#0088CC" d="M208.232,35.805v-7.308c0-2.147-0.951-3.22-2.854-3.22c-0.467,0-0.892,0.089-1.274,0.266
				c-0.383,0.178-0.713,0.425-0.994,0.742c-0.275,0.318-0.49,0.682-0.644,1.092c-0.149,0.411-0.225,0.84-0.225,1.289v7.14h-3.976
				V21.973h3.639l0.142,1.764c0.615-0.803,1.306-1.358,2.071-1.666c0.765-0.308,1.568-0.453,2.408-0.434
				c0.783,0,1.521,0.103,2.211,0.308c0.688,0.205,1.304,0.569,1.834,1.092c0.533,0.523,0.953,1.223,1.262,2.1
				s0.462,1.988,0.462,3.332v7.336H208.232z"/>
			<path fill="#0088CC" d="M222.626,36.113c-1.176,0-2.229-0.177-3.164-0.531c-0.935-0.354-1.728-0.854-2.38-1.498
				c-0.652-0.644-1.152-1.4-1.498-2.278c-0.346-0.877-0.518-1.843-0.518-2.884c0-1.045,0.177-2.012,0.531-2.898
				c0.354-0.886,0.859-1.652,1.522-2.296c0.662-0.644,1.456-1.148,2.38-1.512c0.924-0.364,1.965-0.546,3.122-0.546
				c1.155,0,2.202,0.182,3.137,0.546c0.937,0.364,1.729,0.868,2.396,1.512c0.662,0.644,1.172,1.41,1.525,2.296
				c0.354,0.887,0.529,1.853,0.529,2.898c0,1.042-0.173,2.007-0.52,2.884c-0.347,0.878-0.851,1.638-1.515,2.278
				c-0.661,0.646-1.461,1.146-2.394,1.498C224.855,35.936,223.802,36.113,222.626,36.113z M222.626,32.529
				c0.616,0,1.144-0.102,1.582-0.308c0.438-0.205,0.804-0.476,1.092-0.813c0.289-0.336,0.499-0.723,0.63-1.16
				c0.131-0.437,0.196-0.884,0.196-1.331c0-0.43-0.069-0.863-0.21-1.302c-0.141-0.438-0.35-0.831-0.63-1.176
				c-0.28-0.345-0.64-0.625-1.078-0.84c-0.438-0.214-0.966-0.322-1.582-0.322c-0.599,0-1.115,0.107-1.554,0.322
				c-0.439,0.215-0.799,0.495-1.078,0.84c-0.28,0.346-0.49,0.738-0.631,1.176c-0.141,0.439-0.209,0.873-0.209,1.302
				s0.063,0.858,0.195,1.288c0.131,0.434,0.336,0.816,0.612,1.162c0.28,0.346,0.644,0.625,1.078,0.84S222.01,32.529,222.626,32.529z
				"/>
			<path fill="#0088CC" d="M237.24,16.233v19.572h-4.004V16.233H237.24z"/>
			<path fill="#0088CC" d="M247.825,36.113c-1.177,0-2.229-0.177-3.164-0.531c-0.935-0.354-1.728-0.854-2.38-1.498
				c-0.653-0.645-1.153-1.4-1.498-2.278c-0.346-0.877-0.518-1.843-0.518-2.884c0-1.045,0.176-2.012,0.527-2.898
				c0.354-0.886,0.863-1.652,1.523-2.296c0.662-0.644,1.455-1.148,2.383-1.512c0.924-0.364,1.965-0.546,3.119-0.546
				c1.156,0,2.201,0.182,3.139,0.546c0.938,0.364,1.729,0.868,2.396,1.512c0.662,0.644,1.17,1.41,1.522,2.296
				c0.354,0.887,0.532,1.853,0.532,2.898c0,1.042-0.176,2.007-0.52,2.884c-0.348,0.878-0.852,1.638-1.515,2.278
				c-0.662,0.646-1.461,1.146-2.396,1.498C250.057,35.936,249.001,36.113,247.825,36.113z M247.825,32.529
				c0.616,0,1.144-0.102,1.582-0.308c0.438-0.205,0.803-0.476,1.092-0.813c0.289-0.336,0.499-0.723,0.63-1.16
				c0.131-0.437,0.196-0.884,0.196-1.331c0-0.43-0.07-0.863-0.21-1.302c-0.141-0.438-0.35-0.831-0.631-1.176
				c-0.279-0.345-0.639-0.625-1.077-0.84c-0.438-0.214-0.966-0.322-1.582-0.322c-0.599,0-1.115,0.107-1.554,0.322
				c-0.439,0.215-0.799,0.495-1.078,0.84c-0.28,0.346-0.49,0.738-0.631,1.176c-0.144,0.439-0.209,0.873-0.209,1.302
				s0.063,0.858,0.191,1.288c0.135,0.434,0.336,0.816,0.616,1.162c0.276,0.346,0.644,0.625,1.077,0.84
				C246.674,32.421,247.209,32.529,247.825,32.529z"/>
			<path fill="#0088CC" d="M261.545,37.708c0.074,1.063,0.438,1.797,1.092,2.194c0.654,0.401,1.446,0.604,2.381,0.604
				c0.447,0,0.877-0.053,1.287-0.153c0.41-0.104,0.774-0.263,1.092-0.478c0.318-0.215,0.569-0.479,0.761-0.797
				c0.187-0.317,0.276-0.69,0.276-1.121c0-0.672-0.248-1.235-0.742-1.692c-0.491-0.458-1.364-0.687-2.614-0.687
				c-1.144,0-2.166-0.164-3.08-0.49c-0.915-0.325-1.699-0.787-2.354-1.387c-0.653-0.6-1.155-1.33-1.513-2.197
				c-0.354-0.867-0.53-1.833-0.53-2.897c0-1.176,0.209-2.202,0.629-3.08s0.979-1.61,1.666-2.198c0.689-0.588,1.483-1.031,2.381-1.33
				c0.896-0.298,1.828-0.448,2.803-0.448c0.482,0,1.034,0.047,1.648,0.14c0.615,0.093,1.147,0.299,1.6,0.616l1.512-1.96l2.912,2.24
				l-1.768,2.1c0.484,0.598,0.854,1.237,1.105,1.918c0.252,0.682,0.357,1.368,0.322,2.059c-0.038,0.989-0.29,1.915-0.758,2.771
				c-0.467,0.858-1.202,1.55-2.213,2.071c0.768,0.337,1.356,0.725,1.776,1.162c0.421,0.438,0.729,0.867,0.927,1.287
				c0.194,0.42,0.31,0.809,0.336,1.162c0.025,0.354,0.041,0.635,0.041,0.84c0,1.024-0.215,1.922-0.646,2.688
				c-0.433,0.77-0.994,1.396-1.692,1.902c-0.699,0.506-1.498,0.884-2.396,1.136s-1.82,0.378-2.771,0.378
				c-2.408,0-4.226-0.563-5.445-1.682c-1.225-1.118-1.814-2.68-1.776-4.678h3.752L261.545,37.708L261.545,37.708z M265.073,25.137
				c-1.027,0-1.882,0.299-2.563,0.896c-0.682,0.598-1.021,1.456-1.021,2.576c0,1.008,0.34,1.813,1.021,2.408
				c0.682,0.598,1.535,0.896,2.563,0.896c0.446,0,0.882-0.07,1.302-0.211c0.42-0.144,0.793-0.349,1.12-0.615
				c0.325-0.271,0.583-0.611,0.771-1.022c0.188-0.41,0.279-0.896,0.279-1.456c0-0.485-0.089-0.938-0.266-1.358
				c-0.178-0.42-0.422-0.788-0.729-1.106c-0.308-0.317-0.672-0.564-1.092-0.742C266.038,25.225,265.577,25.137,265.073,25.137z"/>
			<path fill="#0088CC" d="M289.909,21.973l-8.484,20.048h-4.396l2.854-6.636l-5.796-13.412h4.536l3.443,8.708l3.389-8.708H289.909z
				"/>
		</g>
	</g>
	<g>
		<g>
			<path fill="#FFFFFF" d="M174.445,49.617v-7.854h4.048c1.753,0,2.629,0.752,2.629,2.255c0,0.748-0.222,1.344-0.665,1.788
				c-0.443,0.443-1.072,0.666-1.887,0.666h-2.959v3.146h-1.166V49.617L174.445,49.617z M175.611,45.458h2.805
				c1.027,0,1.54-0.477,1.54-1.42c0-0.392-0.114-0.695-0.341-0.927c-0.229-0.227-0.559-0.341-0.99-0.341h-3.014V45.458
				L175.611,45.458z"/>
			<path fill="#FFFFFF" d="M190.352,49.617l-1-2.289H185.5l-1,2.289h-1.254l3.553-7.854h1.33l3.555,7.854H190.352z M188.922,46.316
				l-1.508-3.477l-1.475,3.477H188.922z"/>
			<path fill="#FFFFFF" d="M194.729,49.617v-7.854h4.862c0.726,0,1.28,0.224,1.661,0.671c0.322,0.374,0.484,0.847,0.484,1.419
				c0,1.012-0.44,1.658-1.32,1.938v0.021c0.345,0.052,0.615,0.229,0.814,0.521c0.193,0.297,0.308,0.683,0.33,1.148
				c0.035,0.755,0.068,1.254,0.105,1.496c0.051,0.277,0.143,0.492,0.268,0.641h-1.232c-0.088-0.104-0.146-0.263-0.176-0.476
				c-0.018-0.117-0.037-0.458-0.065-1.021c-0.036-0.685-0.175-1.16-0.413-1.433s-0.605-0.405-1.105-0.405h-3.047v3.334h-1.166
				V49.617z M195.895,45.271h3.256c0.947,0,1.42-0.414,1.42-1.243c0-0.836-0.463-1.254-1.387-1.254h-3.289V45.271z"/>
			<path fill="#FFFFFF" d="M207.367,49.617v-6.843h-2.969v-1.012h7.104v1.012h-2.971v6.843H207.367z"/>
			<path fill="#FFFFFF" d="M220.838,49.617l-5.066-6.248v6.248h-1.166v-7.854h1.357l5.066,6.248v-6.248h1.166v7.854H220.838z"/>
			<path fill="#FFFFFF" d="M226.134,49.617v-7.854h6.313v1.012H227.3v2.277h4.993v1.012H227.3v2.541h5.259v1.014h-6.425V49.617z"/>
			<path fill="#FFFFFF" d="M236.122,49.617v-7.854h4.862c0.726,0,1.279,0.224,1.66,0.671c0.319,0.374,0.48,0.847,0.48,1.419
				c0,1.012-0.438,1.658-1.316,1.938v0.021c0.346,0.052,0.612,0.229,0.813,0.521c0.195,0.297,0.311,0.683,0.33,1.148
				c0.035,0.755,0.072,1.254,0.107,1.496c0.053,0.277,0.142,0.492,0.267,0.641h-1.232c-0.088-0.104-0.146-0.263-0.176-0.476
				c-0.017-0.117-0.036-0.458-0.063-1.021c-0.037-0.685-0.176-1.16-0.414-1.433c-0.235-0.271-0.604-0.405-1.104-0.405h-3.047v3.334
				h-1.167V49.617z M237.288,45.271h3.256c0.946,0,1.419-0.414,1.419-1.243c0-0.836-0.462-1.254-1.386-1.254h-3.289V45.271z"/>
			<path fill="#FFFFFF" d="M245.955,47.031h1.166c0.008,0.646,0.281,1.115,0.824,1.408c0.434,0.242,1.002,0.363,1.705,0.363
				c0.639,0,1.148-0.117,1.541-0.352c0.389-0.234,0.582-0.563,0.582-0.979c0-0.616-0.486-1.005-1.463-1.166l-1.781-0.298
				c-1.555-0.256-2.332-0.941-2.332-2.057c0-0.729,0.277-1.308,0.83-1.738c0.555-0.436,1.326-0.648,2.313-0.648
				c0.908,0,1.649,0.172,2.225,0.518c0.693,0.426,1.067,1.074,1.123,1.946h-1.166c-0.154-0.968-0.936-1.452-2.332-1.452
				c-0.492,0-0.902,0.103-1.232,0.297c-0.396,0.235-0.594,0.565-0.594,0.99c0,0.542,0.43,0.887,1.287,1.034l1.925,0.33
				c1.577,0.271,2.364,0.942,2.364,2.013c0,0.917-0.362,1.596-1.088,2.035c-0.598,0.359-1.357,0.539-2.289,0.539
				c-1.025,0-1.852-0.195-2.463-0.583C246.336,48.762,245.955,48.029,245.955,47.031z"/>
		</g>
	</g>
</g>
</svg>
